<mxfile host="app.diagrams.net" modified="2023-05-08T14:54:43.211Z" agent="Mozilla/5.0 (Macintosh; Intel Mac OS X 10_15_7) AppleWebKit/537.36 (KHTML, like Gecko) Chrome/112.0.0.0 Safari/537.36" etag="4koawQUtLu4YaOolJJXI" version="21.1.8" type="github">
  <diagram name="第 1 页" id="osMRQ07piLL25-XvtrCx">
    <mxGraphModel dx="954" dy="541" grid="1" gridSize="10" guides="1" tooltips="1" connect="1" arrows="1" fold="1" page="1" pageScale="1" pageWidth="827" pageHeight="1169" math="0" shadow="0">
      <root>
        <mxCell id="0" />
        <mxCell id="1" parent="0" />
        <mxCell id="hP8K0Xbtz2cRjytRur4A-6" value="X" style="text;html=1;strokeColor=none;fillColor=none;align=center;verticalAlign=middle;whiteSpace=wrap;rounded=0;fontSize=18;" parent="1" vertex="1">
          <mxGeometry x="70" y="269" width="60" height="30" as="geometry" />
        </mxCell>
        <mxCell id="57RNFcC5YKe5M_FKv6Yu-1" value="&lt;font style=&quot;font-size: 11px;&quot;&gt;rank_0:0&lt;br style=&quot;font-size: 11px;&quot;&gt;[2736, 8192]&lt;/font&gt;" style="rounded=0;whiteSpace=wrap;html=1;fillColor=#b1ddf0;strokeColor=#10739e;fontSize=6;" vertex="1" parent="1">
          <mxGeometry x="57.5" y="309" width="42.5" height="60" as="geometry" />
        </mxCell>
        <mxCell id="57RNFcC5YKe5M_FKv6Yu-12" style="edgeStyle=orthogonalEdgeStyle;rounded=0;orthogonalLoop=1;jettySize=auto;html=1;exitX=0;exitY=1;exitDx=0;exitDy=0;entryX=0.5;entryY=0;entryDx=0;entryDy=0;" edge="1" parent="1" source="57RNFcC5YKe5M_FKv6Yu-2" target="57RNFcC5YKe5M_FKv6Yu-11">
          <mxGeometry relative="1" as="geometry" />
        </mxCell>
        <mxCell id="57RNFcC5YKe5M_FKv6Yu-2" value="rank_0:2&lt;br&gt;[2736, 8192]" style="rounded=0;whiteSpace=wrap;html=1;fillColor=#b1ddf0;strokeColor=#10739e;fontSize=6;" vertex="1" parent="1">
          <mxGeometry x="100" y="309" width="42.5" height="60" as="geometry" />
        </mxCell>
        <mxCell id="57RNFcC5YKe5M_FKv6Yu-9" value="" style="rounded=0;whiteSpace=wrap;html=1;" vertex="1" parent="1">
          <mxGeometry x="70" y="229" width="60" height="20" as="geometry" />
        </mxCell>
        <mxCell id="57RNFcC5YKe5M_FKv6Yu-10" value="&lt;font style=&quot;font-size: 12px;&quot;&gt;Parallel Input&lt;br style=&quot;&quot;&gt;[1, 5472]&lt;/font&gt;" style="text;html=1;strokeColor=none;fillColor=none;align=center;verticalAlign=middle;whiteSpace=wrap;rounded=0;fontSize=18;" vertex="1" parent="1">
          <mxGeometry x="10" y="189" width="180" height="20" as="geometry" />
        </mxCell>
        <mxCell id="57RNFcC5YKe5M_FKv6Yu-11" value="&lt;font style=&quot;font-size: 11px;&quot;&gt;Linear result&lt;/font&gt;" style="rounded=0;whiteSpace=wrap;html=1;" vertex="1" parent="1">
          <mxGeometry x="75" y="429" width="50" height="20" as="geometry" />
        </mxCell>
        <mxCell id="57RNFcC5YKe5M_FKv6Yu-13" value="" style="rounded=0;whiteSpace=wrap;html=1;fillColor=#dae8fc;strokeColor=#6c8ebf;" vertex="1" parent="1">
          <mxGeometry x="45" y="484" width="25" height="20" as="geometry" />
        </mxCell>
        <mxCell id="57RNFcC5YKe5M_FKv6Yu-14" value="gelu" style="rounded=0;whiteSpace=wrap;html=1;fillColor=#f8cecc;strokeColor=#b85450;" vertex="1" parent="1">
          <mxGeometry x="130" y="484" width="25" height="20" as="geometry" />
        </mxCell>
        <mxCell id="57RNFcC5YKe5M_FKv6Yu-17" style="edgeStyle=orthogonalEdgeStyle;rounded=0;orthogonalLoop=1;jettySize=auto;html=1;entryX=0.53;entryY=-0.2;entryDx=0;entryDy=0;entryPerimeter=0;" edge="1" parent="1" source="57RNFcC5YKe5M_FKv6Yu-15" target="57RNFcC5YKe5M_FKv6Yu-16">
          <mxGeometry relative="1" as="geometry" />
        </mxCell>
        <mxCell id="57RNFcC5YKe5M_FKv6Yu-15" value="X" style="text;html=1;strokeColor=none;fillColor=none;align=center;verticalAlign=middle;whiteSpace=wrap;rounded=0;fontSize=18;" vertex="1" parent="1">
          <mxGeometry x="70" y="479" width="60" height="30" as="geometry" />
        </mxCell>
        <mxCell id="57RNFcC5YKe5M_FKv6Yu-16" value="geglu" style="rounded=0;whiteSpace=wrap;html=1;fillColor=#d5e8d4;strokeColor=#82b366;fontSize=9;" vertex="1" parent="1">
          <mxGeometry x="87.5" y="564" width="25" height="20" as="geometry" />
        </mxCell>
        <mxCell id="57RNFcC5YKe5M_FKv6Yu-18" value="X" style="text;html=1;strokeColor=none;fillColor=none;align=center;verticalAlign=middle;whiteSpace=wrap;rounded=0;fontSize=18;" vertex="1" parent="1">
          <mxGeometry x="190" y="270" width="60" height="30" as="geometry" />
        </mxCell>
        <mxCell id="57RNFcC5YKe5M_FKv6Yu-19" value="&lt;font style=&quot;font-size: 11px;&quot;&gt;rank_0:1&lt;br style=&quot;font-size: 11px;&quot;&gt;[2736, 8192]&lt;/font&gt;" style="rounded=0;whiteSpace=wrap;html=1;fillColor=#b1ddf0;strokeColor=#10739e;fontSize=6;" vertex="1" parent="1">
          <mxGeometry x="177.5" y="310" width="42.5" height="60" as="geometry" />
        </mxCell>
        <mxCell id="57RNFcC5YKe5M_FKv6Yu-20" style="edgeStyle=orthogonalEdgeStyle;rounded=0;orthogonalLoop=1;jettySize=auto;html=1;exitX=0;exitY=1;exitDx=0;exitDy=0;entryX=0.5;entryY=0;entryDx=0;entryDy=0;" edge="1" parent="1" source="57RNFcC5YKe5M_FKv6Yu-21" target="57RNFcC5YKe5M_FKv6Yu-24">
          <mxGeometry relative="1" as="geometry" />
        </mxCell>
        <mxCell id="57RNFcC5YKe5M_FKv6Yu-21" value="rank_0:3&lt;br&gt;[2736, 8192]" style="rounded=0;whiteSpace=wrap;html=1;fillColor=#b1ddf0;strokeColor=#10739e;fontSize=6;" vertex="1" parent="1">
          <mxGeometry x="220" y="310" width="42.5" height="60" as="geometry" />
        </mxCell>
        <mxCell id="57RNFcC5YKe5M_FKv6Yu-22" value="" style="rounded=0;whiteSpace=wrap;html=1;" vertex="1" parent="1">
          <mxGeometry x="190" y="230" width="60" height="20" as="geometry" />
        </mxCell>
        <mxCell id="57RNFcC5YKe5M_FKv6Yu-23" value="&lt;font style=&quot;font-size: 12px;&quot;&gt;Parallel Input&lt;br style=&quot;&quot;&gt;[1, 5472]&lt;/font&gt;" style="text;html=1;strokeColor=none;fillColor=none;align=center;verticalAlign=middle;whiteSpace=wrap;rounded=0;fontSize=18;" vertex="1" parent="1">
          <mxGeometry x="130" y="189" width="180" height="20" as="geometry" />
        </mxCell>
        <mxCell id="57RNFcC5YKe5M_FKv6Yu-24" value="&lt;font style=&quot;font-size: 11px;&quot;&gt;Linear result&lt;/font&gt;" style="rounded=0;whiteSpace=wrap;html=1;" vertex="1" parent="1">
          <mxGeometry x="195" y="430" width="50" height="20" as="geometry" />
        </mxCell>
        <mxCell id="57RNFcC5YKe5M_FKv6Yu-25" value="" style="rounded=0;whiteSpace=wrap;html=1;fillColor=#dae8fc;strokeColor=#6c8ebf;" vertex="1" parent="1">
          <mxGeometry x="165" y="485" width="25" height="20" as="geometry" />
        </mxCell>
        <mxCell id="57RNFcC5YKe5M_FKv6Yu-26" value="gelu" style="rounded=0;whiteSpace=wrap;html=1;fillColor=#f8cecc;strokeColor=#b85450;" vertex="1" parent="1">
          <mxGeometry x="250" y="485" width="25" height="20" as="geometry" />
        </mxCell>
        <mxCell id="57RNFcC5YKe5M_FKv6Yu-27" style="edgeStyle=orthogonalEdgeStyle;rounded=0;orthogonalLoop=1;jettySize=auto;html=1;entryX=0.53;entryY=-0.2;entryDx=0;entryDy=0;entryPerimeter=0;" edge="1" parent="1" source="57RNFcC5YKe5M_FKv6Yu-28" target="57RNFcC5YKe5M_FKv6Yu-29">
          <mxGeometry relative="1" as="geometry" />
        </mxCell>
        <mxCell id="57RNFcC5YKe5M_FKv6Yu-28" value="X" style="text;html=1;strokeColor=none;fillColor=none;align=center;verticalAlign=middle;whiteSpace=wrap;rounded=0;fontSize=18;" vertex="1" parent="1">
          <mxGeometry x="190" y="480" width="60" height="30" as="geometry" />
        </mxCell>
        <mxCell id="57RNFcC5YKe5M_FKv6Yu-29" value="geglu" style="rounded=0;whiteSpace=wrap;html=1;fillColor=#d5e8d4;strokeColor=#82b366;fontSize=9;" vertex="1" parent="1">
          <mxGeometry x="207.5" y="565" width="25" height="20" as="geometry" />
        </mxCell>
        <mxCell id="57RNFcC5YKe5M_FKv6Yu-30" value="X" style="text;html=1;strokeColor=none;fillColor=none;align=center;verticalAlign=middle;whiteSpace=wrap;rounded=0;fontSize=18;" vertex="1" parent="1">
          <mxGeometry x="310" y="270" width="60" height="30" as="geometry" />
        </mxCell>
        <mxCell id="57RNFcC5YKe5M_FKv6Yu-31" value="&lt;font style=&quot;font-size: 11px;&quot;&gt;rank_1:0&lt;br style=&quot;font-size: 11px;&quot;&gt;[2736, 8192]&lt;/font&gt;" style="rounded=0;whiteSpace=wrap;html=1;fillColor=#b1ddf0;strokeColor=#10739e;fontSize=6;" vertex="1" parent="1">
          <mxGeometry x="297.5" y="310" width="42.5" height="60" as="geometry" />
        </mxCell>
        <mxCell id="57RNFcC5YKe5M_FKv6Yu-32" style="edgeStyle=orthogonalEdgeStyle;rounded=0;orthogonalLoop=1;jettySize=auto;html=1;exitX=0;exitY=1;exitDx=0;exitDy=0;entryX=0.5;entryY=0;entryDx=0;entryDy=0;" edge="1" parent="1" source="57RNFcC5YKe5M_FKv6Yu-33" target="57RNFcC5YKe5M_FKv6Yu-36">
          <mxGeometry relative="1" as="geometry" />
        </mxCell>
        <mxCell id="57RNFcC5YKe5M_FKv6Yu-33" value="rank_1:2&lt;br&gt;[2736, 8192]" style="rounded=0;whiteSpace=wrap;html=1;fillColor=#b1ddf0;strokeColor=#10739e;fontSize=6;" vertex="1" parent="1">
          <mxGeometry x="340" y="310" width="42.5" height="60" as="geometry" />
        </mxCell>
        <mxCell id="57RNFcC5YKe5M_FKv6Yu-34" value="" style="rounded=0;whiteSpace=wrap;html=1;" vertex="1" parent="1">
          <mxGeometry x="310" y="230" width="60" height="20" as="geometry" />
        </mxCell>
        <mxCell id="57RNFcC5YKe5M_FKv6Yu-35" value="&lt;font style=&quot;font-size: 12px;&quot;&gt;Parallel Input&lt;br style=&quot;&quot;&gt;[1, 5472]&lt;/font&gt;" style="text;html=1;strokeColor=none;fillColor=none;align=center;verticalAlign=middle;whiteSpace=wrap;rounded=0;fontSize=18;" vertex="1" parent="1">
          <mxGeometry x="250" y="190" width="180" height="20" as="geometry" />
        </mxCell>
        <mxCell id="57RNFcC5YKe5M_FKv6Yu-36" value="&lt;font style=&quot;font-size: 11px;&quot;&gt;Linear result&lt;/font&gt;" style="rounded=0;whiteSpace=wrap;html=1;" vertex="1" parent="1">
          <mxGeometry x="315" y="430" width="50" height="20" as="geometry" />
        </mxCell>
        <mxCell id="57RNFcC5YKe5M_FKv6Yu-37" value="" style="rounded=0;whiteSpace=wrap;html=1;fillColor=#dae8fc;strokeColor=#6c8ebf;" vertex="1" parent="1">
          <mxGeometry x="285" y="485" width="25" height="20" as="geometry" />
        </mxCell>
        <mxCell id="57RNFcC5YKe5M_FKv6Yu-38" value="gelu" style="rounded=0;whiteSpace=wrap;html=1;fillColor=#f8cecc;strokeColor=#b85450;" vertex="1" parent="1">
          <mxGeometry x="370" y="485" width="25" height="20" as="geometry" />
        </mxCell>
        <mxCell id="57RNFcC5YKe5M_FKv6Yu-39" style="edgeStyle=orthogonalEdgeStyle;rounded=0;orthogonalLoop=1;jettySize=auto;html=1;entryX=0.53;entryY=-0.2;entryDx=0;entryDy=0;entryPerimeter=0;" edge="1" parent="1" source="57RNFcC5YKe5M_FKv6Yu-40" target="57RNFcC5YKe5M_FKv6Yu-41">
          <mxGeometry relative="1" as="geometry" />
        </mxCell>
        <mxCell id="57RNFcC5YKe5M_FKv6Yu-40" value="X" style="text;html=1;strokeColor=none;fillColor=none;align=center;verticalAlign=middle;whiteSpace=wrap;rounded=0;fontSize=18;" vertex="1" parent="1">
          <mxGeometry x="310" y="480" width="60" height="30" as="geometry" />
        </mxCell>
        <mxCell id="57RNFcC5YKe5M_FKv6Yu-41" value="geglu" style="rounded=0;whiteSpace=wrap;html=1;fillColor=#d5e8d4;strokeColor=#82b366;fontSize=9;" vertex="1" parent="1">
          <mxGeometry x="327.5" y="565" width="25" height="20" as="geometry" />
        </mxCell>
        <mxCell id="57RNFcC5YKe5M_FKv6Yu-42" value="X" style="text;html=1;strokeColor=none;fillColor=none;align=center;verticalAlign=middle;whiteSpace=wrap;rounded=0;fontSize=18;" vertex="1" parent="1">
          <mxGeometry x="430" y="270" width="60" height="30" as="geometry" />
        </mxCell>
        <mxCell id="57RNFcC5YKe5M_FKv6Yu-43" value="&lt;font style=&quot;font-size: 11px;&quot;&gt;rank_1:1&lt;br style=&quot;font-size: 11px;&quot;&gt;[2736, 8192]&lt;/font&gt;" style="rounded=0;whiteSpace=wrap;html=1;fillColor=#b1ddf0;strokeColor=#10739e;fontSize=6;" vertex="1" parent="1">
          <mxGeometry x="417.5" y="310" width="42.5" height="60" as="geometry" />
        </mxCell>
        <mxCell id="57RNFcC5YKe5M_FKv6Yu-44" style="edgeStyle=orthogonalEdgeStyle;rounded=0;orthogonalLoop=1;jettySize=auto;html=1;exitX=0;exitY=1;exitDx=0;exitDy=0;entryX=0.5;entryY=0;entryDx=0;entryDy=0;" edge="1" parent="1" source="57RNFcC5YKe5M_FKv6Yu-45" target="57RNFcC5YKe5M_FKv6Yu-48">
          <mxGeometry relative="1" as="geometry" />
        </mxCell>
        <mxCell id="57RNFcC5YKe5M_FKv6Yu-45" value="rank_1:3&lt;br&gt;[2736, 8192]" style="rounded=0;whiteSpace=wrap;html=1;fillColor=#b1ddf0;strokeColor=#10739e;fontSize=6;" vertex="1" parent="1">
          <mxGeometry x="460" y="310" width="42.5" height="60" as="geometry" />
        </mxCell>
        <mxCell id="57RNFcC5YKe5M_FKv6Yu-46" value="" style="rounded=0;whiteSpace=wrap;html=1;" vertex="1" parent="1">
          <mxGeometry x="430" y="230" width="60" height="20" as="geometry" />
        </mxCell>
        <mxCell id="57RNFcC5YKe5M_FKv6Yu-47" value="&lt;font style=&quot;font-size: 12px;&quot;&gt;Parallel Input&lt;br style=&quot;&quot;&gt;[1, 5472]&lt;/font&gt;" style="text;html=1;strokeColor=none;fillColor=none;align=center;verticalAlign=middle;whiteSpace=wrap;rounded=0;fontSize=18;" vertex="1" parent="1">
          <mxGeometry x="370" y="190" width="180" height="20" as="geometry" />
        </mxCell>
        <mxCell id="57RNFcC5YKe5M_FKv6Yu-48" value="&lt;font style=&quot;font-size: 11px;&quot;&gt;Linear result&lt;/font&gt;" style="rounded=0;whiteSpace=wrap;html=1;" vertex="1" parent="1">
          <mxGeometry x="435" y="430" width="50" height="20" as="geometry" />
        </mxCell>
        <mxCell id="57RNFcC5YKe5M_FKv6Yu-49" value="" style="rounded=0;whiteSpace=wrap;html=1;fillColor=#dae8fc;strokeColor=#6c8ebf;" vertex="1" parent="1">
          <mxGeometry x="405" y="485" width="25" height="20" as="geometry" />
        </mxCell>
        <mxCell id="57RNFcC5YKe5M_FKv6Yu-50" value="gelu" style="rounded=0;whiteSpace=wrap;html=1;fillColor=#f8cecc;strokeColor=#b85450;" vertex="1" parent="1">
          <mxGeometry x="490" y="485" width="25" height="20" as="geometry" />
        </mxCell>
        <mxCell id="57RNFcC5YKe5M_FKv6Yu-51" style="edgeStyle=orthogonalEdgeStyle;rounded=0;orthogonalLoop=1;jettySize=auto;html=1;entryX=0.53;entryY=-0.2;entryDx=0;entryDy=0;entryPerimeter=0;" edge="1" parent="1" source="57RNFcC5YKe5M_FKv6Yu-52" target="57RNFcC5YKe5M_FKv6Yu-53">
          <mxGeometry relative="1" as="geometry" />
        </mxCell>
        <mxCell id="57RNFcC5YKe5M_FKv6Yu-52" value="X" style="text;html=1;strokeColor=none;fillColor=none;align=center;verticalAlign=middle;whiteSpace=wrap;rounded=0;fontSize=18;" vertex="1" parent="1">
          <mxGeometry x="430" y="480" width="60" height="30" as="geometry" />
        </mxCell>
        <mxCell id="57RNFcC5YKe5M_FKv6Yu-53" value="geglu" style="rounded=0;whiteSpace=wrap;html=1;fillColor=#d5e8d4;strokeColor=#82b366;fontSize=9;" vertex="1" parent="1">
          <mxGeometry x="447.5" y="565" width="25" height="20" as="geometry" />
        </mxCell>
        <mxCell id="57RNFcC5YKe5M_FKv6Yu-54" value="X" style="text;html=1;strokeColor=none;fillColor=none;align=center;verticalAlign=middle;whiteSpace=wrap;rounded=0;fontSize=18;" vertex="1" parent="1">
          <mxGeometry x="550" y="270" width="60" height="30" as="geometry" />
        </mxCell>
        <mxCell id="57RNFcC5YKe5M_FKv6Yu-55" value="&lt;font style=&quot;font-size: 11px;&quot;&gt;rank_2:0&lt;br style=&quot;font-size: 11px;&quot;&gt;[2736, 8192]&lt;/font&gt;" style="rounded=0;whiteSpace=wrap;html=1;fillColor=#b1ddf0;strokeColor=#10739e;fontSize=6;" vertex="1" parent="1">
          <mxGeometry x="537.5" y="310" width="42.5" height="60" as="geometry" />
        </mxCell>
        <mxCell id="57RNFcC5YKe5M_FKv6Yu-56" style="edgeStyle=orthogonalEdgeStyle;rounded=0;orthogonalLoop=1;jettySize=auto;html=1;exitX=0;exitY=1;exitDx=0;exitDy=0;entryX=0.5;entryY=0;entryDx=0;entryDy=0;" edge="1" parent="1" source="57RNFcC5YKe5M_FKv6Yu-57" target="57RNFcC5YKe5M_FKv6Yu-60">
          <mxGeometry relative="1" as="geometry" />
        </mxCell>
        <mxCell id="57RNFcC5YKe5M_FKv6Yu-57" value="rank_2:2&lt;br&gt;[2736, 8192]" style="rounded=0;whiteSpace=wrap;html=1;fillColor=#b1ddf0;strokeColor=#10739e;fontSize=6;" vertex="1" parent="1">
          <mxGeometry x="580" y="310" width="42.5" height="60" as="geometry" />
        </mxCell>
        <mxCell id="57RNFcC5YKe5M_FKv6Yu-58" value="" style="rounded=0;whiteSpace=wrap;html=1;" vertex="1" parent="1">
          <mxGeometry x="550" y="230" width="60" height="20" as="geometry" />
        </mxCell>
        <mxCell id="57RNFcC5YKe5M_FKv6Yu-59" value="&lt;font style=&quot;font-size: 12px;&quot;&gt;Parallel Input&lt;br style=&quot;&quot;&gt;[1, 5472]&lt;/font&gt;" style="text;html=1;strokeColor=none;fillColor=none;align=center;verticalAlign=middle;whiteSpace=wrap;rounded=0;fontSize=18;" vertex="1" parent="1">
          <mxGeometry x="490" y="190" width="180" height="20" as="geometry" />
        </mxCell>
        <mxCell id="57RNFcC5YKe5M_FKv6Yu-60" value="&lt;font style=&quot;font-size: 11px;&quot;&gt;Linear result&lt;/font&gt;" style="rounded=0;whiteSpace=wrap;html=1;" vertex="1" parent="1">
          <mxGeometry x="555" y="430" width="50" height="20" as="geometry" />
        </mxCell>
        <mxCell id="57RNFcC5YKe5M_FKv6Yu-61" value="" style="rounded=0;whiteSpace=wrap;html=1;fillColor=#dae8fc;strokeColor=#6c8ebf;" vertex="1" parent="1">
          <mxGeometry x="525" y="485" width="25" height="20" as="geometry" />
        </mxCell>
        <mxCell id="57RNFcC5YKe5M_FKv6Yu-62" value="gelu" style="rounded=0;whiteSpace=wrap;html=1;fillColor=#f8cecc;strokeColor=#b85450;" vertex="1" parent="1">
          <mxGeometry x="610" y="485" width="25" height="20" as="geometry" />
        </mxCell>
        <mxCell id="57RNFcC5YKe5M_FKv6Yu-63" style="edgeStyle=orthogonalEdgeStyle;rounded=0;orthogonalLoop=1;jettySize=auto;html=1;entryX=0.53;entryY=-0.2;entryDx=0;entryDy=0;entryPerimeter=0;" edge="1" parent="1" source="57RNFcC5YKe5M_FKv6Yu-64" target="57RNFcC5YKe5M_FKv6Yu-65">
          <mxGeometry relative="1" as="geometry" />
        </mxCell>
        <mxCell id="57RNFcC5YKe5M_FKv6Yu-64" value="X" style="text;html=1;strokeColor=none;fillColor=none;align=center;verticalAlign=middle;whiteSpace=wrap;rounded=0;fontSize=18;" vertex="1" parent="1">
          <mxGeometry x="550" y="480" width="60" height="30" as="geometry" />
        </mxCell>
        <mxCell id="57RNFcC5YKe5M_FKv6Yu-65" value="geglu" style="rounded=0;whiteSpace=wrap;html=1;fillColor=#d5e8d4;strokeColor=#82b366;fontSize=9;" vertex="1" parent="1">
          <mxGeometry x="567.5" y="565" width="25" height="20" as="geometry" />
        </mxCell>
        <mxCell id="57RNFcC5YKe5M_FKv6Yu-66" value="X" style="text;html=1;strokeColor=none;fillColor=none;align=center;verticalAlign=middle;whiteSpace=wrap;rounded=0;fontSize=18;" vertex="1" parent="1">
          <mxGeometry x="670" y="270" width="60" height="30" as="geometry" />
        </mxCell>
        <mxCell id="57RNFcC5YKe5M_FKv6Yu-67" value="&lt;font style=&quot;font-size: 11px;&quot;&gt;rank_2:1&lt;br style=&quot;font-size: 11px;&quot;&gt;[2736, 8192]&lt;/font&gt;" style="rounded=0;whiteSpace=wrap;html=1;fillColor=#b1ddf0;strokeColor=#10739e;fontSize=6;" vertex="1" parent="1">
          <mxGeometry x="657.5" y="310" width="42.5" height="60" as="geometry" />
        </mxCell>
        <mxCell id="57RNFcC5YKe5M_FKv6Yu-68" style="edgeStyle=orthogonalEdgeStyle;rounded=0;orthogonalLoop=1;jettySize=auto;html=1;exitX=0;exitY=1;exitDx=0;exitDy=0;entryX=0.5;entryY=0;entryDx=0;entryDy=0;" edge="1" parent="1" source="57RNFcC5YKe5M_FKv6Yu-69" target="57RNFcC5YKe5M_FKv6Yu-72">
          <mxGeometry relative="1" as="geometry" />
        </mxCell>
        <mxCell id="57RNFcC5YKe5M_FKv6Yu-69" value="rank_2:3&lt;br&gt;[2736, 8192]" style="rounded=0;whiteSpace=wrap;html=1;fillColor=#b1ddf0;strokeColor=#10739e;fontSize=6;" vertex="1" parent="1">
          <mxGeometry x="700" y="310" width="42.5" height="60" as="geometry" />
        </mxCell>
        <mxCell id="57RNFcC5YKe5M_FKv6Yu-70" value="" style="rounded=0;whiteSpace=wrap;html=1;" vertex="1" parent="1">
          <mxGeometry x="670" y="230" width="60" height="20" as="geometry" />
        </mxCell>
        <mxCell id="57RNFcC5YKe5M_FKv6Yu-71" value="&lt;font style=&quot;font-size: 12px;&quot;&gt;Parallel Input&lt;br style=&quot;&quot;&gt;[1, 5472]&lt;/font&gt;" style="text;html=1;strokeColor=none;fillColor=none;align=center;verticalAlign=middle;whiteSpace=wrap;rounded=0;fontSize=18;" vertex="1" parent="1">
          <mxGeometry x="608.5" y="190" width="180" height="20" as="geometry" />
        </mxCell>
        <mxCell id="57RNFcC5YKe5M_FKv6Yu-72" value="&lt;font style=&quot;font-size: 11px;&quot;&gt;Linear result&lt;/font&gt;" style="rounded=0;whiteSpace=wrap;html=1;" vertex="1" parent="1">
          <mxGeometry x="675" y="430" width="50" height="20" as="geometry" />
        </mxCell>
        <mxCell id="57RNFcC5YKe5M_FKv6Yu-73" value="" style="rounded=0;whiteSpace=wrap;html=1;fillColor=#dae8fc;strokeColor=#6c8ebf;" vertex="1" parent="1">
          <mxGeometry x="645" y="485" width="25" height="20" as="geometry" />
        </mxCell>
        <mxCell id="57RNFcC5YKe5M_FKv6Yu-74" value="gelu" style="rounded=0;whiteSpace=wrap;html=1;fillColor=#f8cecc;strokeColor=#b85450;" vertex="1" parent="1">
          <mxGeometry x="730" y="485" width="25" height="20" as="geometry" />
        </mxCell>
        <mxCell id="57RNFcC5YKe5M_FKv6Yu-75" style="edgeStyle=orthogonalEdgeStyle;rounded=0;orthogonalLoop=1;jettySize=auto;html=1;entryX=0.53;entryY=-0.2;entryDx=0;entryDy=0;entryPerimeter=0;" edge="1" parent="1" source="57RNFcC5YKe5M_FKv6Yu-76" target="57RNFcC5YKe5M_FKv6Yu-77">
          <mxGeometry relative="1" as="geometry" />
        </mxCell>
        <mxCell id="57RNFcC5YKe5M_FKv6Yu-76" value="X" style="text;html=1;strokeColor=none;fillColor=none;align=center;verticalAlign=middle;whiteSpace=wrap;rounded=0;fontSize=18;" vertex="1" parent="1">
          <mxGeometry x="670" y="480" width="60" height="30" as="geometry" />
        </mxCell>
        <mxCell id="57RNFcC5YKe5M_FKv6Yu-77" value="geglu" style="rounded=0;whiteSpace=wrap;html=1;fillColor=#d5e8d4;strokeColor=#82b366;fontSize=9;" vertex="1" parent="1">
          <mxGeometry x="687.5" y="565" width="25" height="20" as="geometry" />
        </mxCell>
        <mxCell id="57RNFcC5YKe5M_FKv6Yu-78" value="X" style="text;html=1;strokeColor=none;fillColor=none;align=center;verticalAlign=middle;whiteSpace=wrap;rounded=0;fontSize=18;" vertex="1" parent="1">
          <mxGeometry x="788.5" y="270" width="60" height="30" as="geometry" />
        </mxCell>
        <mxCell id="57RNFcC5YKe5M_FKv6Yu-79" value="&lt;font style=&quot;font-size: 11px;&quot;&gt;rank_3:0&lt;br style=&quot;font-size: 11px;&quot;&gt;[2736, 8192]&lt;/font&gt;" style="rounded=0;whiteSpace=wrap;html=1;fillColor=#b1ddf0;strokeColor=#10739e;fontSize=6;" vertex="1" parent="1">
          <mxGeometry x="776" y="310" width="42.5" height="60" as="geometry" />
        </mxCell>
        <mxCell id="57RNFcC5YKe5M_FKv6Yu-80" style="edgeStyle=orthogonalEdgeStyle;rounded=0;orthogonalLoop=1;jettySize=auto;html=1;exitX=0;exitY=1;exitDx=0;exitDy=0;entryX=0.5;entryY=0;entryDx=0;entryDy=0;" edge="1" parent="1" source="57RNFcC5YKe5M_FKv6Yu-81" target="57RNFcC5YKe5M_FKv6Yu-84">
          <mxGeometry relative="1" as="geometry" />
        </mxCell>
        <mxCell id="57RNFcC5YKe5M_FKv6Yu-81" value="rank_3:2&lt;br&gt;[2736, 8192]" style="rounded=0;whiteSpace=wrap;html=1;fillColor=#b1ddf0;strokeColor=#10739e;fontSize=6;" vertex="1" parent="1">
          <mxGeometry x="818.5" y="310" width="42.5" height="60" as="geometry" />
        </mxCell>
        <mxCell id="57RNFcC5YKe5M_FKv6Yu-82" value="" style="rounded=0;whiteSpace=wrap;html=1;" vertex="1" parent="1">
          <mxGeometry x="788.5" y="230" width="60" height="20" as="geometry" />
        </mxCell>
        <mxCell id="57RNFcC5YKe5M_FKv6Yu-83" value="&lt;font style=&quot;font-size: 12px;&quot;&gt;Parallel Input&lt;br style=&quot;&quot;&gt;[1, 5472]&lt;/font&gt;" style="text;html=1;strokeColor=none;fillColor=none;align=center;verticalAlign=middle;whiteSpace=wrap;rounded=0;fontSize=18;" vertex="1" parent="1">
          <mxGeometry x="728.5" y="190" width="180" height="20" as="geometry" />
        </mxCell>
        <mxCell id="57RNFcC5YKe5M_FKv6Yu-84" value="&lt;font style=&quot;font-size: 11px;&quot;&gt;Linear result&lt;/font&gt;" style="rounded=0;whiteSpace=wrap;html=1;" vertex="1" parent="1">
          <mxGeometry x="793.5" y="430" width="50" height="20" as="geometry" />
        </mxCell>
        <mxCell id="57RNFcC5YKe5M_FKv6Yu-85" value="" style="rounded=0;whiteSpace=wrap;html=1;fillColor=#dae8fc;strokeColor=#6c8ebf;" vertex="1" parent="1">
          <mxGeometry x="763.5" y="485" width="25" height="20" as="geometry" />
        </mxCell>
        <mxCell id="57RNFcC5YKe5M_FKv6Yu-86" value="gelu" style="rounded=0;whiteSpace=wrap;html=1;fillColor=#f8cecc;strokeColor=#b85450;" vertex="1" parent="1">
          <mxGeometry x="848.5" y="485" width="25" height="20" as="geometry" />
        </mxCell>
        <mxCell id="57RNFcC5YKe5M_FKv6Yu-87" style="edgeStyle=orthogonalEdgeStyle;rounded=0;orthogonalLoop=1;jettySize=auto;html=1;entryX=0.53;entryY=-0.2;entryDx=0;entryDy=0;entryPerimeter=0;" edge="1" parent="1" source="57RNFcC5YKe5M_FKv6Yu-88" target="57RNFcC5YKe5M_FKv6Yu-89">
          <mxGeometry relative="1" as="geometry" />
        </mxCell>
        <mxCell id="57RNFcC5YKe5M_FKv6Yu-88" value="X" style="text;html=1;strokeColor=none;fillColor=none;align=center;verticalAlign=middle;whiteSpace=wrap;rounded=0;fontSize=18;" vertex="1" parent="1">
          <mxGeometry x="788.5" y="480" width="60" height="30" as="geometry" />
        </mxCell>
        <mxCell id="57RNFcC5YKe5M_FKv6Yu-89" value="geglu" style="rounded=0;whiteSpace=wrap;html=1;fillColor=#d5e8d4;strokeColor=#82b366;fontSize=9;" vertex="1" parent="1">
          <mxGeometry x="806" y="565" width="25" height="20" as="geometry" />
        </mxCell>
        <mxCell id="57RNFcC5YKe5M_FKv6Yu-90" value="X" style="text;html=1;strokeColor=none;fillColor=none;align=center;verticalAlign=middle;whiteSpace=wrap;rounded=0;fontSize=18;" vertex="1" parent="1">
          <mxGeometry x="910" y="270" width="60" height="30" as="geometry" />
        </mxCell>
        <mxCell id="57RNFcC5YKe5M_FKv6Yu-91" value="&lt;font style=&quot;font-size: 11px;&quot;&gt;rank_3:1&lt;br style=&quot;font-size: 11px;&quot;&gt;[2736, 8192]&lt;/font&gt;" style="rounded=0;whiteSpace=wrap;html=1;fillColor=#b1ddf0;strokeColor=#10739e;fontSize=6;" vertex="1" parent="1">
          <mxGeometry x="897.5" y="310" width="42.5" height="60" as="geometry" />
        </mxCell>
        <mxCell id="57RNFcC5YKe5M_FKv6Yu-92" style="edgeStyle=orthogonalEdgeStyle;rounded=0;orthogonalLoop=1;jettySize=auto;html=1;exitX=0;exitY=1;exitDx=0;exitDy=0;entryX=0.5;entryY=0;entryDx=0;entryDy=0;" edge="1" parent="1" source="57RNFcC5YKe5M_FKv6Yu-93" target="57RNFcC5YKe5M_FKv6Yu-95">
          <mxGeometry relative="1" as="geometry" />
        </mxCell>
        <mxCell id="57RNFcC5YKe5M_FKv6Yu-93" value="rank_3:3&lt;br&gt;[2736, 8192]" style="rounded=0;whiteSpace=wrap;html=1;fillColor=#b1ddf0;strokeColor=#10739e;fontSize=6;" vertex="1" parent="1">
          <mxGeometry x="940" y="310" width="42.5" height="60" as="geometry" />
        </mxCell>
        <mxCell id="57RNFcC5YKe5M_FKv6Yu-94" value="" style="rounded=0;whiteSpace=wrap;html=1;" vertex="1" parent="1">
          <mxGeometry x="910" y="230" width="60" height="20" as="geometry" />
        </mxCell>
        <mxCell id="57RNFcC5YKe5M_FKv6Yu-95" value="&lt;font style=&quot;font-size: 11px;&quot;&gt;Linear result&lt;/font&gt;" style="rounded=0;whiteSpace=wrap;html=1;" vertex="1" parent="1">
          <mxGeometry x="915" y="430" width="50" height="20" as="geometry" />
        </mxCell>
        <mxCell id="57RNFcC5YKe5M_FKv6Yu-96" value="" style="rounded=0;whiteSpace=wrap;html=1;fillColor=#dae8fc;strokeColor=#6c8ebf;" vertex="1" parent="1">
          <mxGeometry x="885" y="485" width="25" height="20" as="geometry" />
        </mxCell>
        <mxCell id="57RNFcC5YKe5M_FKv6Yu-97" value="gelu" style="rounded=0;whiteSpace=wrap;html=1;fillColor=#f8cecc;strokeColor=#b85450;" vertex="1" parent="1">
          <mxGeometry x="970" y="485" width="25" height="20" as="geometry" />
        </mxCell>
        <mxCell id="57RNFcC5YKe5M_FKv6Yu-98" style="edgeStyle=orthogonalEdgeStyle;rounded=0;orthogonalLoop=1;jettySize=auto;html=1;entryX=0.53;entryY=-0.2;entryDx=0;entryDy=0;entryPerimeter=0;" edge="1" parent="1" source="57RNFcC5YKe5M_FKv6Yu-99" target="57RNFcC5YKe5M_FKv6Yu-100">
          <mxGeometry relative="1" as="geometry" />
        </mxCell>
        <mxCell id="57RNFcC5YKe5M_FKv6Yu-99" value="X" style="text;html=1;strokeColor=none;fillColor=none;align=center;verticalAlign=middle;whiteSpace=wrap;rounded=0;fontSize=18;" vertex="1" parent="1">
          <mxGeometry x="910" y="480" width="60" height="30" as="geometry" />
        </mxCell>
        <mxCell id="57RNFcC5YKe5M_FKv6Yu-100" value="geglu" style="rounded=0;whiteSpace=wrap;html=1;fillColor=#d5e8d4;strokeColor=#82b366;fontSize=9;" vertex="1" parent="1">
          <mxGeometry x="927.5" y="565" width="25" height="20" as="geometry" />
        </mxCell>
        <mxCell id="57RNFcC5YKe5M_FKv6Yu-102" value="&lt;font style=&quot;font-size: 12px;&quot;&gt;Parallel Input&lt;br style=&quot;&quot;&gt;[1, 5472]&lt;/font&gt;" style="text;html=1;strokeColor=none;fillColor=none;align=center;verticalAlign=middle;whiteSpace=wrap;rounded=0;fontSize=18;" vertex="1" parent="1">
          <mxGeometry x="850" y="190" width="180" height="20" as="geometry" />
        </mxCell>
      </root>
    </mxGraphModel>
  </diagram>
</mxfile>
